<svg width="155" height="22" viewBox="0 0 155 22" fill="none" xmlns="http://www.w3.org/2000/svg">
<path d="M22.3262 21.1842H16.1914V12.4759H7.10352V21.1842H0.933594V0.330078H7.10352V8.60872H16.1914V0.330078H22.3262V21.1842Z" fill="#242424"/>
<path d="M47.9199 11.1882C47.9199 13.222 47.457 15.0219 46.5312 16.5879C45.6055 18.1539 44.2871 19.3617 42.5762 20.2116C40.877 21.0518 38.9375 21.472 36.7578 21.472C34.5781 21.472 32.6445 21.0662 30.957 20.2545C29.2695 19.4334 27.9512 18.2637 27.002 16.7455C26.0645 15.2272 25.5723 13.4846 25.5254 11.5176V10.3431C25.5254 8.29966 25.9824 6.49978 26.8965 4.94336C27.8223 3.37739 29.1406 2.16949 30.8516 1.31966C32.5742 0.469835 34.5312 0.0449219 36.7227 0.0449219C38.8906 0.0449219 40.8242 0.46506 42.5234 1.30534C44.2227 2.14561 45.541 3.34397 46.4785 4.90039C47.4277 6.44727 47.9082 8.22331 47.9199 10.2285V11.1882ZM41.6445 10.3145C41.6445 8.24238 41.2168 6.67166 40.3613 5.60221C39.5176 4.52322 38.3047 3.98372 36.7227 3.98372C33.6289 3.98372 31.9941 5.87435 31.8184 9.65559L31.8008 11.1882C31.8008 13.2316 32.2168 14.8023 33.0488 15.9004C33.8809 16.9985 35.1172 17.5476 36.7578 17.5476C38.3164 17.5476 39.5176 17.008 40.3613 15.929C41.2051 14.85 41.6328 13.2984 41.6445 11.2741V10.3145Z" fill="#242424"/>
<path d="M60.6113 13.8222H57.2715V21.1842H51.1016V0.330078H61.1738C64.209 0.330078 66.582 0.879125 68.293 1.97721C70.0039 3.0753 70.8594 4.62696 70.8594 6.63216C70.8594 8.08356 70.4961 9.28664 69.7695 10.2415C69.0547 11.1964 67.9297 11.9698 66.3945 12.5619L71.7383 20.9694V21.1842H65.1289L60.6113 13.8222ZM57.2715 9.94078H61.1738C62.3457 9.94078 63.2246 9.6925 63.8105 9.19596C64.4082 8.68987 64.707 7.98807 64.707 7.09049C64.707 6.19292 64.4082 5.4911 63.8105 4.98503C63.2129 4.4694 62.334 4.21159 61.1738 4.21159H57.2715V9.94078Z" fill="#242424"/>
<path d="M96.2598 11.1882C96.2598 13.222 95.7969 15.0219 94.8711 16.5879C93.9453 18.1539 92.627 19.3617 90.916 20.2116C89.2168 21.0518 87.2773 21.472 85.0977 21.472C82.918 21.472 80.9844 21.0662 79.2969 20.2545C77.6094 19.4334 76.291 18.2637 75.3418 16.7455C74.4043 15.2272 73.9121 13.4846 73.8652 11.5176V10.3431C73.8652 8.29966 74.3223 6.49978 75.2363 4.94336C76.1621 3.37739 77.4805 2.16949 79.1914 1.31966C80.9141 0.469835 82.8711 0.0449219 85.0625 0.0449219C87.2305 0.0449219 89.1641 0.46506 90.8633 1.30534C92.5625 2.14561 93.8809 3.34397 94.8184 4.90039C95.7676 6.44727 96.248 8.22331 96.2598 10.2285V11.1882ZM89.9844 10.3145C89.9844 8.24238 89.5566 6.67166 88.7012 5.60221C87.8574 4.52322 86.6445 3.98372 85.0625 3.98372C81.9688 3.98372 80.334 5.87435 80.1582 9.65559L80.1406 11.1882C80.1406 13.2316 80.5566 14.8023 81.3887 15.9004C82.2207 16.9985 83.457 17.5476 85.0977 17.5476C86.6562 17.5476 87.8574 17.008 88.7012 15.929C89.5449 14.85 89.9727 13.2984 89.9844 11.2741V10.3145Z" fill="#242424"/>
<path d="M120.816 21.1842H114.682L105.611 8.20767V21.1842H99.4414V0.330078H105.611L114.664 13.3066V0.330078H120.816V21.1842Z" fill="#242424"/>
<path d="M124.719 21.1842V0.330078H132.963C135.225 0.330078 137.258 0.750217 139.062 1.59049C140.867 2.42123 142.273 3.60048 143.281 5.12825C144.301 6.64648 144.816 8.35091 144.828 10.2415V11.2011C144.828 13.1109 144.33 14.8249 143.334 16.3431C142.35 17.8518 140.955 19.0358 139.15 19.8952C137.357 20.745 135.354 21.1747 133.139 21.1842H124.719ZM130.889 4.21159V17.3171H133.033C134.803 17.3171 136.162 16.8062 137.111 15.7845C138.061 14.7532 138.535 13.2255 138.535 11.2011V10.2988C138.535 8.2841 138.061 6.76584 137.111 5.74414C136.162 4.72244 134.779 4.21159 132.963 4.21159H130.889Z" fill="#242424"/>
<path d="M154.566 21.1842H148.414V0.330078H154.566V21.1842Z" fill="#242424"/>
</svg>
